# xmcd
#
# Track frame offsets:
#	150
#	16478
#	29343
#	38105
#	56852
#	67346
#	78853
#	91095
#	104083
#	117336
#	125464
#	135891
#	145593
#	160054
#	169260
#	180357
#	192422
#	204911
#	218323
#	232605
#
# Disc length: 3285 seconds
#
# Revision: 5
# Processed by: cddbd v1.5.2PL0 Copyright (c) Steve Scherf et al.
# Submitted via: EasyCDDAExtractor 8.2.3.1
#
DISCID=050cd314
DTITLE=David Allan Coe - 20 Road Music Hits
DYEAR=1996
DGENRE=Country
TTITLE0=Drivin' My Life Away
TTITLE1=California Turn-Arounds
TTITLE2=On The Road Again
TTITLE3=Roll On 18 Wheeler
TTITLE4=Six Days On The Road
TTITLE5=Papa Loved Mama
TTITLE6=Endless Black Ribbon
TTITLE7=How Fast Them Trucks Can Go
TTITLE8=Widow Maker
TTITLE9=Willin'
TTITLE10=Movin' On
TTITLE11=Truck Driving Man
TTITLE12=Ramblin' Fever
TTITLE13=Tombstone Every Mile
TTITLE14=Give Me Forty Acres
TTITLE15=18 Wheels Hummin' Home Sweet Home
TTITLE16=Ramblin' Man
TTITLE17=White Line Fever
TTITLE18=The Devil Was To Blame
TTITLE19=In The Heart Of Dixie
EXTD=YEAR: 1996 ID3G: 2
EXTT0=
EXTT1=
EXTT2=
EXTT3=
EXTT4=
EXTT5=
EXTT6=
EXTT7=
EXTT8=
EXTT9=
EXTT10=
EXTT11=
EXTT12=
EXTT13=
EXTT14=
EXTT15=
EXTT16=
EXTT17=
EXTT18=
EXTT19=
PLAYORDER=
